<?xml version="1.0" standalone="no"?>
<!DOCTYPE svg PUBLIC "-//W3C//DTD SVG 20010904//EN"
 "http://www.w3.org/TR/2001/REC-SVG-20010904/DTD/svg10.dtd">
<svg version="1.0" xmlns="http://www.w3.org/2000/svg"
 width="833.000000pt" height="1280.000000pt" viewBox="0 0 833.000000 1280.000000"
 preserveAspectRatio="xMidYMid meet">
<metadata>
Created by potrace 1.15, written by Peter Selinger 2001-2017
</metadata>
<g transform="translate(0.000000,1280.000000) scale(0.100000,-0.100000)"
fill="#000000" stroke="none">
<path d="M3027 12790 c-81 -14 -130 -46 -240 -158 -146 -147 -249 -279 -301
-387 -85 -173 -207 -584 -240 -806 -38 -253 -4 -597 110 -1129 87 -404 97
-424 304 -631 127 -127 173 -156 355 -219 216 -76 325 -132 325 -166 0 -8 11
-24 24 -35 50 -43 122 -277 112 -362 -9 -80 -60 -159 -179 -278 -102 -103
-141 -158 -130 -185 11 -30 -49 -109 -232 -304 -244 -260 -309 -388 -322 -631
-5 -107 -4 -121 16 -163 23 -47 161 -182 361 -356 52 -45 107 -95 123 -111 33
-36 31 -42 -61 -149 -78 -91 -122 -165 -122 -206 0 -98 160 -224 307 -240 65
-7 74 -13 48 -34 -21 -18 -19 -43 15 -175 35 -137 47 -262 31 -322 -15 -56
-46 -80 -243 -187 -227 -123 -314 -182 -335 -225 -32 -67 -16 -181 31 -220 24
-20 19 -28 -21 -36 -21 -3 -58 -18 -82 -32 -57 -33 -155 -132 -181 -183 -50
-97 -169 -181 -279 -195 -69 -10 -98 -24 -119 -59 -11 -18 -43 -52 -73 -77
-126 -103 -166 -154 -308 -389 -42 -70 -94 -202 -136 -346 -52 -175 -65 -262
-75 -484 -6 -118 -15 -249 -21 -290 -27 -185 -21 -325 21 -521 30 -138 290
-648 466 -914 190 -287 429 -536 658 -687 110 -73 166 -101 316 -163 63 -25
124 -55 135 -64 14 -13 31 -17 56 -14 20 3 134 -5 255 -17 261 -26 510 -28
634 -5 166 30 178 30 205 5 l25 -23 0 24 c0 45 20 59 98 70 40 6 164 37 276
70 113 32 217 59 233 59 21 0 32 8 45 30 9 16 38 42 64 57 114 68 336 246 464
374 142 142 211 246 391 589 195 369 255 529 284 746 20 153 38 595 33 839
l-3 200 -53 96 c-29 53 -77 163 -108 245 -57 154 -121 277 -233 449 -69 106
-143 185 -234 250 -31 22 -59 46 -62 54 -3 8 8 33 25 55 63 84 82 125 87 186
7 77 -14 136 -67 184 -42 38 -55 41 -219 51 -52 3 -102 10 -111 15 -10 5 -34
32 -54 59 -61 86 -161 134 -199 97 -21 -21 -40 -20 -62 4 -17 19 -18 25 -5 68
21 75 23 116 6 156 -24 58 -20 91 26 190 52 113 59 168 26 215 -28 41 -117 93
-213 123 -54 18 -81 34 -117 70 -73 72 -69 89 43 224 50 60 99 126 110 146 27
53 49 152 49 225 0 75 -19 127 -91 249 -60 101 -93 192 -114 308 -35 206 -28
412 21 567 40 126 64 129 120 13 25 -52 55 -151 94 -308 69 -274 85 -317 186
-488 42 -71 85 -155 96 -186 22 -63 51 -99 118 -145 25 -17 76 -57 114 -89 39
-32 75 -58 81 -58 45 0 77 71 96 210 28 208 131 647 194 830 48 136 99 238
192 380 152 232 398 562 544 731 91 104 125 152 162 224 29 57 50 72 166 114
108 40 188 85 313 178 57 42 133 92 170 111 52 27 75 46 98 82 55 85 90 228
90 366 0 30 2 54 5 54 3 0 33 -12 68 -26 83 -34 145 -41 184 -20 34 17 59 53
113 161 l35 70 61 0 c50 0 66 5 96 27 19 15 40 42 47 60 31 84 45 100 141 158
117 72 140 99 147 178 15 168 -101 410 -244 509 -52 36 -61 38 -137 40 -91 3
-85 -1 -146 99 -72 119 -232 254 -302 254 -47 0 -80 19 -157 93 -107 102 -148
120 -287 125 -94 3 -113 1 -127 -13 -9 -9 -17 -25 -17 -35 0 -41 -24 -27 -129
74 -59 58 -121 108 -136 112 -65 16 -198 -20 -287 -79 -108 -73 -206 -187
-321 -377 -20 -34 -43 -60 -50 -58 -6 3 -32 33 -57 69 -24 35 -88 107 -141
160 -77 75 -99 103 -104 132 -4 22 -16 42 -31 52 -13 8 -24 24 -24 35 0 48
-191 195 -351 269 -163 76 -252 79 -389 14 -155 -73 -194 -138 -194 -323 0
-255 86 -401 374 -637 122 -100 212 -213 278 -351 77 -158 78 -293 6 -495 -86
-244 -105 -351 -84 -475 16 -95 43 -137 135 -210 44 -34 102 -82 130 -106 44
-38 48 -45 36 -60 -11 -13 -13 -42 -8 -138 13 -253 -50 -516 -174 -733 -113
-198 -270 -415 -299 -415 -9 0 -36 21 -60 46 -25 25 -73 58 -107 75 -102 49
-185 171 -248 364 -19 60 -44 118 -54 129 -10 12 -33 47 -51 78 -46 83 -89
118 -146 118 -112 0 -260 -60 -353 -143 -65 -59 -103 -71 -116 -39 -37 96
-100 295 -115 367 -35 160 -21 283 32 304 13 5 38 15 57 22 153 57 568 688
687 1045 89 265 57 525 -125 1013 -139 371 -242 539 -510 828 -158 171 -326
325 -390 358 -45 22 -141 54 -295 96 -73 20 -181 23 -269 9z m238 -117 c267
-74 352 -126 585 -361 239 -241 378 -429 489 -662 74 -157 190 -497 242 -710
22 -89 17 -279 -9 -378 -90 -333 -370 -818 -579 -1002 -50 -44 -47 -43 -140
-24 -84 17 -103 -16 -103 -181 0 -305 115 -647 260 -779 65 -58 82 -48 106 64
17 85 26 105 58 125 39 26 167 65 212 65 36 0 47 -5 77 -39 38 -42 40 -47 57
-133 13 -64 75 -164 201 -319 86 -106 159 -215 159 -236 0 -19 42 -33 100 -33
42 0 52 -4 74 -31 15 -17 33 -29 43 -27 22 4 205 245 237 313 169 351 209 462
266 743 22 109 47 217 55 241 8 25 15 76 15 114 0 65 -2 70 -32 99 -18 17 -62
47 -98 68 -74 43 -132 110 -150 177 -23 78 -7 220 40 373 56 185 73 300 68
469 -3 121 -7 142 -30 193 -66 142 -170 273 -298 375 -124 98 -282 260 -307
313 -45 98 -63 336 -30 398 38 70 160 120 266 109 69 -8 193 -49 241 -81 55
-36 100 -87 121 -134 11 -26 31 -49 50 -60 55 -30 77 -51 98 -95 11 -23 62
-87 111 -141 160 -174 186 -214 210 -316 7 -30 25 -78 41 -106 36 -63 58 -186
66 -359 5 -112 3 -141 -16 -215 -20 -78 -26 -89 -80 -145 -32 -33 -66 -71 -75
-85 -18 -27 -22 -75 -6 -85 5 -3 76 -10 157 -16 153 -10 276 -31 304 -52 9 -7
24 -28 34 -47 9 -19 85 -105 169 -191 83 -86 180 -189 216 -229 40 -46 96 -94
148 -127 45 -30 82 -58 82 -63 0 -17 -87 -82 -155 -116 -38 -19 -95 -40 -126
-46 -50 -10 -60 -9 -83 5 -14 10 -26 27 -26 38 0 43 -29 90 -65 104 -31 14
-39 14 -71 0 -50 -21 -62 -19 -101 15 -36 32 -89 40 -111 18 -49 -49 58 -180
228 -281 33 -20 56 -41 58 -53 2 -14 -28 -55 -94 -130 -144 -163 -192 -225
-391 -507 -333 -471 -365 -538 -513 -1082 -101 -372 -138 -440 -237 -440 -56
0 -74 20 -127 136 -23 52 -67 132 -96 179 -77 122 -125 231 -150 340 -75 326
-172 585 -234 625 -22 14 -27 14 -59 -1 -40 -19 -57 -49 -57 -99 0 -24 -5 -35
-19 -40 -61 -19 -87 -284 -60 -616 15 -188 30 -244 109 -409 38 -80 74 -167
80 -195 19 -85 -9 -218 -57 -276 -33 -39 -68 -56 -134 -65 -109 -15 -139 -95
-88 -241 39 -114 130 -233 177 -233 11 0 64 -22 120 -50 73 -35 102 -55 102
-67 0 -28 -56 -242 -78 -298 -10 -27 -23 -68 -26 -90 -17 -92 -75 -110 -361
-110 -234 0 -255 5 -255 55 0 55 112 149 150 125 16 -10 69 24 85 55 8 16 15
49 15 74 0 55 -32 97 -98 129 -25 12 -55 34 -65 49 -28 38 -33 114 -12 197 9
38 14 80 10 93 -11 36 -55 97 -76 103 -22 7 -84 -28 -99 -55 -21 -40 -6 -161
49 -377 42 -167 43 -167 -28 -234 -51 -48 -60 -63 -66 -103 -10 -63 0 -129 27
-183 30 -59 16 -73 -48 -48 -94 36 -111 36 -233 5 -132 -35 -162 -37 -185 -11
-17 19 -111 65 -156 76 -19 4 -37 -2 -70 -25 -133 -92 -119 -86 -152 -67 -63
36 -107 18 -202 -84 -36 -40 -69 -70 -72 -67 -9 10 14 126 30 150 18 27 133
99 191 119 22 7 58 28 81 46 50 40 119 71 251 112 91 28 103 34 109 58 8 32
-11 232 -37 395 -28 173 -44 207 -148 326 -18 19 -30 22 -96 22 -115 0 -170
31 -182 104 -7 46 20 88 182 281 140 167 172 212 202 285 28 68 30 175 7 303
-18 100 -46 150 -86 155 -68 8 -75 -99 -17 -263 35 -101 35 -154 -1 -224 -29
-59 -79 -111 -104 -111 -34 0 -77 35 -131 107 -33 44 -77 86 -125 121 -170
120 -190 135 -215 172 -40 58 -54 107 -55 190 -1 195 69 312 369 623 196 203
231 247 231 292 0 18 10 46 23 63 12 17 46 64 75 104 96 131 150 264 161 397
13 154 -20 261 -106 345 -63 62 -167 123 -233 136 -83 17 -205 58 -299 102
-68 31 -98 52 -155 111 -78 80 -176 217 -224 312 -25 50 -52 148 -52 187 0 21
38 1 166 -89 171 -119 292 -195 408 -258 l89 -49 126 13 c163 16 448 64 533
91 167 51 399 275 456 439 10 29 9 37 -8 62 -34 47 -84 50 -113 6 -8 -12 -21
-47 -30 -78 -31 -104 -169 -250 -292 -309 -108 -51 -469 -117 -600 -108 -50 3
-82 14 -166 56 -191 95 -416 286 -439 373 -17 64 -92 119 -163 119 -26 0 -42
45 -71 201 -43 226 -58 348 -58 494 0 166 16 274 78 524 88 359 150 506 300
712 91 124 210 234 298 274 108 50 110 50 261 8z m3384 -938 c60 -31 132 -141
219 -335 39 -87 285 -681 313 -755 47 -127 56 -215 23 -215 -8 0 -26 -7 -39
-16 -19 -13 -25 -25 -25 -54 0 -72 59 -206 134 -305 93 -122 57 -358 -67 -438
-89 -58 -166 -18 -238 124 -16 32 -29 64 -29 70 0 7 -19 35 -43 63 -92 109
-176 249 -222 371 -53 139 -111 480 -119 693 -3 67 -8 127 -12 133 -8 14 -74
2 -95 -17 -27 -24 -28 -61 -8 -219 22 -175 24 -268 7 -283 -7 -5 -22 -11 -33
-14 -14 -2 -23 -16 -31 -48 -14 -58 -77 -128 -147 -165 -89 -47 -87 -52 -87
217 0 158 -5 262 -15 323 -20 122 -19 190 5 258 14 39 20 82 20 140 0 46 5 99
11 118 32 95 211 283 321 338 67 34 114 39 157 16z m547 -139 c70 -32 125
-107 219 -301 90 -184 153 -358 205 -563 52 -202 68 -312 52 -347 -13 -28 -18
-30 -74 -40 -56 -9 -52 -40 16 -114 64 -69 72 -90 52 -129 -21 -41 -41 -54
-79 -54 -75 0 -168 81 -204 177 -12 33 -45 139 -72 235 -80 279 -142 451 -285
783 -106 247 -113 292 -54 346 49 46 132 49 224 7z m385 -244 c144 -92 353
-519 377 -772 4 -41 6 -85 4 -97 -4 -24 -9 -24 -115 -1 -63 13 -74 32 -122
201 -20 73 -77 253 -126 400 -49 147 -89 274 -89 282 0 22 21 18 71 -13z m452
-308 c95 -47 139 -103 170 -214 37 -130 33 -229 -10 -280 -28 -34 -71 -40 -97
-15 -8 9 -31 68 -52 133 -20 64 -54 172 -75 240 -21 68 -39 132 -39 142 0 28
39 26 103 -6z m-105 -686 c27 -27 -2 -78 -43 -78 -45 0 -93 59 -68 83 11 12
98 8 111 -5z m-3188 -4945 c15 -9 38 -34 50 -56 20 -35 22 -50 18 -126 -3 -52
-12 -99 -22 -119 -41 -80 -181 -172 -262 -172 -59 0 -74 23 -74 113 0 38 -7
118 -16 179 -16 107 -16 111 3 130 56 56 242 87 303 51z m-454 -84 c15 -17 19
-41 22 -147 4 -149 2 -153 -80 -182 -62 -22 -182 -42 -202 -34 -14 5 -26 90
-26 185 l0 58 107 71 c113 75 147 84 179 49z m-916 1 c11 -6 24 -20 30 -31 13
-24 -9 -66 -61 -114 -40 -38 -79 -119 -79 -165 0 -53 -10 -80 -29 -80 -61 0
-102 141 -66 226 15 37 100 125 150 155 35 22 31 22 55 9z m1656 -36 c35 -23
48 -75 40 -163 -10 -107 -33 -153 -88 -180 -53 -25 -86 -27 -95 -5 -3 9 -1 76
5 150 11 128 29 199 55 216 15 10 52 2 83 -18z m-1204 -66 c18 -31 18 -324 1
-354 -23 -40 -78 -57 -167 -52 -236 14 -371 195 -239 323 70 67 174 103 310
104 75 1 83 -1 95 -21z m-757 -5 c14 -34 18 -209 6 -245 -10 -30 -21 -40 -64
-58 -81 -36 -119 -42 -139 -23 -10 9 -18 26 -18 37 0 41 100 225 153 284 25
26 52 29 62 5z m2358 -25 c64 -24 101 -153 64 -224 -42 -81 -166 -134 -318
-134 -100 0 -108 20 -42 111 32 45 33 50 33 142 0 64 4 98 13 105 25 21 194
21 250 0z m-2699 -283 c-2 -49 -39 -85 -88 -85 -56 0 -54 26 4 82 62 59 86 60
84 3z m1689 -20 c52 -36 48 -57 -19 -108 -31 -23 -89 -69 -128 -101 -143 -119
-234 -142 -465 -117 -129 13 -148 13 -209 -1 -37 -9 -70 -14 -74 -10 -3 4 2
43 11 87 20 90 8 82 151 103 36 5 109 28 162 51 88 38 110 43 220 52 134 11
175 19 228 49 47 26 78 25 123 -5z m418 -35 c22 -12 42 -27 46 -35 3 -10 18
-14 42 -13 46 1 83 -10 78 -25 -2 -7 -36 -23 -75 -37 -61 -21 -82 -35 -135
-89 -34 -35 -84 -76 -112 -92 -70 -41 -83 -52 -94 -82 -11 -29 -2 -66 20 -84
8 -5 36 -18 62 -28 55 -21 97 -65 97 -103 0 -17 -35 -81 -93 -172 -105 -164
-111 -168 -194 -126 -49 25 -94 63 -125 107 -23 34 -44 19 -93 -68 -22 -39
-50 -86 -62 -104 -20 -30 -23 -47 -23 -138 0 -101 -1 -105 -54 -240 -66 -165
-90 -268 -91 -381 0 -135 34 -168 115 -108 37 27 108 35 135 14 19 -15 18 -17
-46 -78 -64 -60 -67 -66 -78 -128 -7 -41 -23 -84 -45 -120 -85 -139 -245 -499
-217 -488 5 2 24 23 42 47 19 25 39 46 46 48 17 6 40 -45 63 -139 24 -99 25
-151 5 -208 -8 -23 -15 -46 -15 -49 0 -4 20 -31 45 -60 25 -29 45 -59 45 -66
0 -24 41 -54 96 -70 31 -9 58 -24 64 -35 18 -33 11 -93 -15 -135 -58 -94 -66
-130 -41 -188 17 -42 80 -97 110 -97 13 0 67 9 119 20 53 10 127 22 164 26 98
9 147 33 173 84 29 56 48 153 55 275 10 154 39 213 115 230 47 10 120 113 120
169 0 33 -27 47 -101 53 -38 4 -60 11 -63 20 -4 8 -1 44 4 80 7 42 7 70 1 76
-5 5 -51 9 -101 8 -105 -2 -160 6 -160 23 0 31 164 101 209 89 16 -4 27 1 37
16 8 11 20 21 26 21 5 0 26 7 45 16 43 21 83 79 83 121 0 30 7 38 68 77 37 25
90 63 119 86 28 23 82 54 120 69 49 20 74 37 88 59 23 36 72 56 115 47 58 -13
53 -39 -29 -162 -60 -90 -121 -156 -162 -177 -31 -16 -47 -42 -32 -57 8 -8 22
-5 51 10 41 21 58 39 171 184 34 42 80 91 104 108 44 33 173 99 193 99 28 0
62 41 69 83 10 60 29 92 70 117 64 40 65 36 65 -207 0 -277 -12 -390 -45 -452
-14 -25 -58 -84 -97 -131 -39 -47 -104 -134 -143 -195 -132 -200 -291 -491
-283 -517 2 -6 51 58 108 143 168 250 207 298 193 237 -10 -40 -83 -190 -109
-225 -14 -19 -30 -50 -36 -70 -13 -47 -69 -140 -145 -239 -66 -86 -170 -194
-188 -194 -6 0 -62 -43 -125 -95 -187 -156 -378 -276 -415 -261 -16 6 -17 16
-12 76 3 39 2 70 -3 70 -13 0 -60 -101 -60 -132 0 -42 -32 -63 -148 -97 -243
-69 -443 -111 -630 -132 -137 -14 -421 -7 -567 15 -55 9 -137 16 -182 16 -62
0 -84 4 -90 15 -5 8 -36 22 -68 30 -139 36 -450 233 -605 382 -162 155 -339
380 -401 508 -40 83 -40 175 1 345 16 69 30 129 30 134 0 25 -22 -17 -60 -114
-66 -167 -97 -204 -121 -142 -16 38 -4 417 16 507 8 39 18 84 21 100 l6 30
-26 -34 c-31 -42 -50 -97 -75 -225 -23 -111 -38 -137 -63 -109 -55 61 -140
264 -178 423 -26 109 -27 160 -13 519 9 247 10 254 32 272 17 14 40 19 80 19
113 0 181 42 160 97 -12 31 0 51 82 139 62 67 73 99 42 126 -36 30 -88 43
-171 42 l-83 -2 6 42 c11 76 38 149 72 195 32 44 97 141 149 224 54 84 58 24
9 -123 -19 -57 -32 -106 -29 -109 3 -3 9 1 14 9 70 118 140 217 161 229 23 13
28 12 57 -9 45 -33 113 -25 193 25 61 37 62 37 95 21 25 -12 34 -22 34 -41 0
-14 -47 -121 -104 -238 -58 -116 -157 -333 -221 -482 -64 -148 -143 -330 -176
-404 -57 -130 -69 -171 -49 -171 5 0 19 14 32 30 12 17 28 30 35 30 8 0 42
-27 76 -60 79 -77 99 -83 138 -40 24 26 32 30 44 20 21 -18 20 -27 -31 -210
-25 -91 -48 -187 -51 -215 l-6 -50 29 26 c16 14 46 36 67 48 20 13 58 53 84
89 96 138 105 140 192 46 88 -97 101 -138 112 -354 11 -227 14 -248 55 -342
26 -59 40 -111 54 -210 32 -214 64 -298 116 -298 46 0 49 51 14 238 -27 147
-23 157 45 121 35 -19 49 -22 62 -13 26 16 28 42 4 88 -11 23 -28 84 -38 136
-16 84 -18 149 -16 565 3 496 12 715 33 740 8 10 31 15 70 15 93 0 171 36 212
98 25 37 22 71 -8 128 -36 68 -72 104 -105 104 -33 0 -89 54 -89 87 0 16 7 24
28 29 66 16 70 54 11 105 -34 29 -41 40 -36 60 9 35 92 137 130 159 52 31 58
40 55 78 -2 28 -8 38 -23 40 -28 4 -96 -56 -133 -117 -28 -46 -87 -101 -108
-101 -5 0 -32 -18 -61 -39 -73 -56 -84 -60 -170 -71 -157 -20 -283 -110 -349
-249 -20 -42 -51 -96 -68 -121 -38 -52 -64 -112 -100 -230 -32 -103 -40 -115
-93 -129 -22 -6 -46 -18 -53 -26 -21 -26 -41 -19 -34 13 15 66 106 277 224
519 145 297 184 365 252 440 57 63 73 94 81 152 9 75 27 73 132 -9 87 -69 122
-85 150 -70 13 7 62 55 110 106 48 52 94 94 104 94 10 0 40 10 66 21 71 31
168 23 255 -21 64 -32 64 -32 132 -20 82 16 303 8 433 -15 50 -9 108 -19 131
-22 l41 -5 46 68 c56 84 179 220 216 238 14 7 56 16 93 20 120 12 156 36 143
97 -16 74 84 100 186 49z m-1771 -50 c0 -11 -60 -31 -71 -24 -16 9 -10 24 13
33 24 9 58 3 58 -9z m373 -16 c9 -3 17 -11 17 -18 0 -25 -48 -57 -180 -116
-139 -63 -230 -93 -255 -83 -23 8 -18 38 11 72 24 28 31 31 87 31 83 0 107 14
137 78 l25 54 70 -7 c38 -4 78 -9 88 -11z m-513 -94 c0 -16 -88 -191 -106
-211 -24 -27 -41 -24 -85 16 -54 49 -111 50 -196 5 -28 -15 -76 -31 -105 -35
-29 -3 -86 -13 -126 -22 -85 -18 -101 -14 -95 21 11 57 150 143 283 176 55 13
353 58 398 59 17 1 32 -4 32 -9z m2069 -89 c46 -24 111 -94 111 -120 0 -23
-35 -51 -63 -51 -64 0 -127 71 -127 143 0 54 17 59 79 28z m554 -164 c3 -8 1
-20 -3 -27 -7 -11 -11 -11 -24 -1 -9 8 -16 20 -16 27 0 18 36 18 43 1z m175
-3 c25 -17 29 -52 8 -60 -32 -12 -78 38 -61 66 9 14 27 12 53 -6z m-770 -76
c31 -31 -4 -129 -41 -115 -22 8 -22 58 -2 97 17 33 25 36 43 18z m122 -52 c0
-14 -4 -28 -10 -31 -6 -4 -10 7 -10 24 0 17 5 31 10 31 6 0 10 -11 10 -24z
m637 -65 c58 -42 84 -121 39 -121 -27 0 -86 42 -102 71 -16 32 -10 79 11 79 6
0 30 -13 52 -29z m-830 -332 c-7 -56 -24 -92 -39 -83 -10 6 -7 33 13 106 14
55 33 38 26 -23z m-2159 -48 c19 -11 11 -45 -11 -49 -19 -4 -32 20 -23 43 6
17 15 19 34 6z m2352 -31 c0 -10 -4 -22 -10 -25 -6 -4 -10 7 -10 25 0 18 4 29
10 25 6 -3 10 -15 10 -25z m-477 -27 c11 -10 -13 -33 -34 -33 -21 0 -22 1 -13
24 6 16 35 22 47 9z m1161 -49 c7 -19 -10 -44 -31 -44 -17 0 -27 24 -19 45 7
20 42 19 50 -1z m-272 -161 c-10 -28 -10 -28 -11 12 -1 28 2 36 10 28 8 -8 8
-19 1 -40z m-2326 3 c14 -23 14 -28 -4 -68 -10 -24 -28 -51 -39 -60 -18 -17
-23 -17 -65 -2 -47 15 -85 47 -88 74 -8 56 26 79 117 80 55 0 64 -3 79 -24z
m1649 7 c26 -26 37 -63 37 -128 0 -65 -23 -135 -44 -135 -24 0 -60 32 -74 66
-26 63 -12 154 30 197 22 21 30 21 51 0z m-1995 -494 c0 -37 -4 -70 -9 -73
-28 -18 -54 101 -31 143 9 18 14 20 26 10 10 -8 14 -33 14 -80z m28 -247 c3
-18 -1 -22 -22 -22 -19 0 -26 5 -26 18 0 39 43 43 48 4z m2017 -43 c29 -27 45
-50 45 -65 0 -32 -11 -30 -35 9 -16 24 -32 35 -69 44 -56 14 -60 17 -53 38 12
30 64 18 112 -26z m-608 -185 c16 -25 16 -27 -1 -40 -32 -23 -77 14 -62 51 9
24 44 17 63 -11z m-137 -158 c22 -27 7 -58 -39 -83 -38 -20 -46 -21 -53 -9
-12 21 6 60 38 85 32 25 38 26 54 7z m287 -72 c9 -25 -23 -115 -55 -154 -25
-30 -32 -33 -45 -21 -30 24 -28 47 7 102 58 90 80 107 93 73z m431 -190 c6
-63 -121 -184 -194 -184 -27 0 -36 6 -49 30 -20 38 -19 74 1 106 29 44 130 85
199 81 37 -2 40 -4 43 -33z m-107 -430 c20 -24 5 -103 -25 -133 -25 -25 -31
-26 -138 -26 -93 0 -112 3 -121 17 -22 34 3 71 73 105 118 59 183 70 211 37z
m-113 -262 c11 -14 10 -20 -9 -34 -36 -30 -99 -16 -99 22 0 41 80 50 108 12z"/>
<path d="M2870 12051 c-189 -142 -295 -481 -256 -811 38 -315 115 -453 303
-547 120 -59 199 -56 294 13 55 40 84 42 272 20 135 -16 219 -9 295 26 60 28
211 178 243 244 24 48 24 53 24 345 l0 296 -47 94 c-94 189 -177 259 -332 280
-114 15 -165 5 -242 -47 -35 -24 -71 -44 -80 -44 -9 0 -33 17 -53 38 -42 43
-116 81 -218 111 -106 32 -141 28 -203 -18z m208 -121 c54 -24 88 -53 109 -94
24 -45 27 -176 9 -316 -15 -123 -14 -170 6 -170 7 0 8 -22 4 -57 -19 -185 -19
-206 3 -261 26 -65 27 -112 2 -160 -23 -44 -113 -132 -136 -132 -9 0 -50 14
-91 31 -192 80 -273 234 -274 518 0 296 60 497 190 630 41 42 44 43 87 37 25
-3 66 -15 91 -26z m663 -21 c102 -31 177 -160 224 -384 53 -254 -22 -549 -160
-631 -92 -53 -317 -74 -382 -34 -66 40 -114 152 -129 300 -9 90 -3 110 50 169
24 27 47 59 51 70 3 12 10 21 15 21 4 0 31 -26 59 -59 51 -58 101 -91 139 -91
28 0 79 45 102 91 24 45 25 90 6 128 -22 41 -105 114 -122 107 -9 -3 -19 -6
-23 -6 -5 0 -39 -25 -77 -55 -38 -30 -76 -55 -85 -55 -22 0 -59 79 -59 126 0
19 14 68 30 108 65 156 217 238 361 195z"/>
<path d="M2981 11493 c-78 -79 -106 -130 -105 -193 1 -52 21 -95 64 -139 43
-42 81 -42 125 2 45 45 59 101 60 232 0 90 -3 116 -18 138 -27 42 -52 34 -126
-40z"/>
<path d="M6041 9285 c-36 -31 -46 -57 -31 -85 8 -15 19 -20 38 -18 21 2 33 14
52 51 25 47 25 48 6 63 -26 19 -30 18 -65 -11z"/>
<path d="M3771 7061 c-46 -46 -34 -111 19 -111 48 0 88 55 78 107 -5 27 -71
30 -97 4z"/>
<path d="M3700 4298 c-11 -12 -20 -28 -20 -35 0 -38 -64 -193 -245 -588 -136
-298 -191 -435 -176 -435 22 0 141 226 141 266 0 28 97 225 177 357 109 181
197 396 180 441 -9 22 -32 20 -57 -6z"/>
<path d="M4216 4196 c-3 -13 -2 -35 3 -48 8 -19 10 -15 10 25 1 52 -4 60 -13
23z"/>
<path d="M3683 3927 c-31 -46 -127 -246 -121 -253 13 -13 152 245 146 272 -2
9 -11 2 -25 -19z"/>
<path d="M3783 3148 c-24 -27 -46 -68 -40 -74 7 -7 67 65 67 81 0 20 -3 19
-27 -7z"/>
<path d="M3167 3108 c-37 -50 -49 -76 -37 -83 18 -11 70 54 70 86 0 16 -2 29
-4 29 -3 0 -16 -15 -29 -32z"/>
<path d="M1682 2944 c-11 -21 2 -113 20 -147 10 -19 48 -38 61 -30 5 3 1 13
-8 23 -9 10 -20 46 -25 81 -10 71 -32 104 -48 73z"/>
<path d="M5265 2439 c-20 -39 -35 -72 -32 -75 7 -7 87 113 87 130 0 33 -19 14
-55 -55z"/>
<path d="M5608 2398 c-87 -142 -134 -248 -110 -248 19 0 158 249 177 318 13
46 -12 19 -67 -70z"/>
<path d="M2065 2350 c-9 -14 3 -30 24 -30 18 0 41 18 41 32 0 12 -58 10 -65
-2z"/>
<path d="M5158 2260 c-22 -33 -35 -86 -19 -76 17 11 43 65 39 84 -3 14 -7 12
-20 -8z"/>
<path d="M5446 2078 c-46 -54 -101 -147 -91 -156 4 -4 20 9 37 28 35 41 102
159 95 166 -2 3 -21 -14 -41 -38z"/>
<path d="M2337 1745 c-9 -20 -17 -48 -16 -63 1 -25 2 -24 19 13 25 56 33 85
23 85 -5 0 -17 -16 -26 -35z"/>
<path d="M3288 1661 c-72 -23 -140 -67 -196 -124 -51 -52 -54 -71 -26 -182 11
-47 17 -114 18 -207 1 -92 5 -141 13 -149 9 -9 28 -4 83 26 86 45 97 44 206
-21 187 -111 314 -136 419 -84 43 21 55 34 83 89 43 85 42 118 -4 162 -43 41
-66 84 -89 164 -36 123 -82 186 -145 200 -17 4 -40 20 -52 37 -60 79 -82 91
-198 102 -39 4 -71 0 -112 -13z m105 -89 c8 -11 -19 -81 -40 -104 -23 -26 -77
-50 -97 -42 -42 16 -19 77 46 123 41 29 82 39 91 23z m-165 -304 c-6 -16 -36
-34 -44 -26 -3 4 -4 14 -1 23 7 17 51 21 45 3z m522 -193 c12 -32 -2 -71 -29
-80 -33 -10 -44 3 -36 44 12 63 47 83 65 36z"/>
<path d="M2650 1634 c0 -21 4 -33 10 -29 6 3 10 19 10 36 0 16 -4 29 -10 29
-5 0 -10 -16 -10 -36z"/>
<path d="M5450 1595 c-10 -12 -10 -19 -2 -27 13 -13 42 6 42 28 0 19 -24 18
-40 -1z"/>
<path d="M2300 1548 c0 -16 19 -38 33 -38 4 0 7 10 5 22 -3 25 -38 39 -38 16z"/>
<path d="M2601 1538 c-11 -30 -34 -189 -28 -195 7 -6 47 124 54 175 6 46 -11
60 -26 20z"/>
<path d="M4941 12573 c-41 -32 -70 -94 -71 -149 0 -63 17 -71 89 -44 l59 22
81 -36 c45 -20 89 -36 98 -36 27 0 8 66 -31 110 -19 22 -47 62 -61 89 -14 28
-34 55 -44 61 -35 18 -84 11 -120 -17z"/>
<path d="M6508 12419 c-49 -18 -49 -83 0 -96 32 -9 501 -7 510 2 9 8 -34 42
-78 62 -26 12 -63 16 -147 15 -68 -1 -140 4 -183 13 -39 8 -72 15 -73 14 -1 0
-14 -5 -29 -10z"/>
<path d="M6560 12217 c-89 -28 -173 -69 -207 -103 -29 -29 -20 -55 27 -79 45
-23 63 -19 128 30 131 98 270 109 393 30 54 -36 95 -43 130 -25 83 45 -127
157 -311 166 -69 3 -99 0 -160 -19z"/>
<path d="M7240 9368 c-25 -27 -26 -48 -1 -48 19 0 61 43 61 61 0 17 -40 9 -60
-13z"/>
<path d="M526 9298 c-42 -65 -76 -201 -112 -458 -41 -297 -52 -318 -165 -330
-40 -4 -90 -14 -109 -22 -70 -30 -140 -130 -140 -201 0 -30 181 -131 284 -159
30 -8 48 -19 55 -35 17 -37 24 -182 12 -248 -35 -200 -35 -202 -17 -229 37
-57 76 -18 163 164 72 150 97 190 119 190 9 0 80 -63 158 -140 179 -174 205
-187 272 -128 34 30 36 35 32 78 -5 49 -13 63 -126 210 -34 45 -62 85 -62 90
0 11 39 32 138 76 81 36 134 73 158 110 15 22 15 26 0 48 -25 39 -142 102
-259 140 -59 19 -119 44 -134 55 -14 12 -36 21 -48 21 -47 0 -86 13 -96 33 -6
11 -11 54 -10 97 1 48 -9 123 -24 200 -17 78 -29 180 -34 277 -6 118 -11 158
-23 170 -15 14 -18 13 -32 -9z m-1 -378 c34 -66 58 -219 58 -365 0 -77 -2
-151 -4 -164 -3 -14 2 -28 13 -34 14 -9 26 -2 68 37 51 48 52 48 104 42 61 -7
255 -61 306 -85 19 -9 36 -24 38 -34 9 -43 -61 -80 -232 -123 -59 -15 -123
-37 -142 -50 -52 -35 -74 -32 -74 10 0 19 -5 38 -12 42 -19 12 -50 -39 -102
-166 -50 -124 -81 -180 -103 -188 -18 -5 -17 210 2 313 18 101 18 110 -1 129
-24 24 -60 19 -97 -14 -27 -24 -44 -30 -78 -30 -50 0 -115 27 -143 59 -43 48
24 100 152 120 107 17 137 32 163 83 20 38 23 66 31 226 7 160 16 222 33 222
3 0 12 -14 20 -30z m352 -969 c50 -36 112 -108 120 -140 6 -26 -5 -52 -26 -59
-27 -9 -161 171 -161 217 0 19 25 12 67 -18z"/>
<path d="M7610 9043 c-8 -3 -43 -16 -77 -29 -34 -13 -80 -24 -103 -24 -54 0
-75 -12 -89 -51 -8 -24 -8 -38 2 -58 11 -23 19 -26 59 -25 107 1 313 149 257
185 -15 10 -26 10 -49 2z"/>
<path d="M7647 8774 c-28 -30 -73 -69 -100 -87 -39 -25 -47 -36 -45 -55 10
-85 139 -18 202 105 18 36 21 93 5 93 -6 0 -34 -25 -62 -56z"/>
<path d="M697 2288 c-8 -13 -18 -36 -21 -51 -16 -66 46 -262 80 -255 35 7 39
33 16 105 -12 37 -23 91 -23 118 -2 93 -24 128 -52 83z"/>
<path d="M1002 1998 c-7 -7 -12 -18 -12 -25 0 -46 107 -183 198 -254 37 -29
81 -66 99 -82 27 -25 40 -30 86 -31 61 0 90 16 85 48 -2 16 -15 24 -49 32 -97
24 -225 125 -273 215 -51 95 -100 131 -134 97z"/>
<path d="M6389 708 c-40 -71 -68 -95 -118 -103 -71 -12 -81 -16 -96 -39 -33
-50 16 -76 101 -55 91 23 164 122 164 223 0 44 -16 36 -51 -26z"/>
<path d="M6699 313 c-9 -10 -39 -52 -67 -93 -29 -41 -68 -86 -88 -100 -20 -14
-52 -39 -72 -56 -31 -28 -34 -34 -23 -48 41 -49 180 33 233 139 12 22 36 57
55 78 42 47 43 90 2 95 -15 2 -31 -4 -40 -15z"/>
</g>
</svg>
